<svg version="1.1" id="Layer_1" xmlns="http://www.w3.org/2000/svg" xmlns:xlink="http://www.w3.org/1999/xlink" x="0px" y="0px"
	 width="100%" viewBox="0 0 1024 1024" enable-background="new 0 0 1024 1024" xml:space="preserve">
<path fill="#000000" opacity="1.000000" stroke="none" 
	d="
M0.999991,844.000000 
	C1.000000,606.641724 1.000000,369.283508 1.190247,131.643585 
	C2.906925,134.574310 5.459188,131.540314 7.618337,132.405090 
	C17.131691,136.215393 17.697077,136.062210 27.217215,133.296661 
	C27.536671,133.203857 27.865879,133.145187 28.187799,133.060226 
	C38.977631,130.212448 43.180576,122.670074 39.867096,111.801147 
	C38.816128,108.353752 38.623764,104.991234 39.312759,101.468597 
	C41.239258,91.618935 39.861481,82.644806 32.459660,75.133713 
	C29.667734,72.300568 27.085890,69.160042 26.241573,65.057541 
	C22.639244,47.553936 33.039341,34.309643 50.814476,33.902603 
	C61.663624,33.654160 72.445755,33.058784 82.926628,29.902174 
	C91.300049,27.380280 99.876083,26.857000 108.595009,26.755680 
	C119.305679,26.631212 129.726700,24.176191 139.960373,21.093435 
	C143.039322,20.165939 147.397141,18.189468 146.746521,15.436040 
	C145.615036,10.647458 146.312622,5.507306 144.000000,1.000000 
	C391.024902,1.000000 638.049805,1.000000 885.327271,1.161119 
	C884.744385,1.954073 884.006470,2.664049 884.542603,3.823816 
	C886.658752,8.401202 886.461243,13.255259 885.994141,18.051571 
	C885.747559,20.583721 886.903748,22.106524 888.407532,23.734892 
	C893.313049,29.046762 899.565308,32.669884 905.078735,37.196930 
	C918.211121,47.979893 928.830444,61.254997 939.815796,74.098198 
	C942.916321,77.723167 945.222107,82.090820 948.897095,85.288681 
	C957.937073,93.155113 967.012756,100.936699 974.408081,110.514107 
	C977.539001,114.568794 981.319580,118.235138 985.272827,121.513733 
	C990.592041,125.925125 995.149536,130.825180 998.850464,136.681351 
	C1002.078857,141.789780 1006.432556,145.439850 1013.084290,145.351486 
	C1017.052612,145.298767 1021.027893,145.766327 1025.000000,146.000000 
	C1025.000000,241.691574 1025.000000,337.383148 1024.754883,433.519287 
	C1022.741089,434.062042 1021.325378,433.852844 1020.659668,431.732361 
	C1017.104004,420.406250 1010.734314,410.201202 1006.982422,399.027557 
	C1001.393250,382.382263 989.098633,373.131012 974.140015,366.223236 
	C971.371887,364.944916 968.503906,365.314728 966.873413,367.667786 
	C961.556152,375.341156 951.808594,380.178345 951.602417,391.185394 
	C951.593140,391.680237 950.859375,392.161499 950.362061,392.773346 
	C947.135620,391.488647 947.126709,388.477295 946.688782,386.110413 
	C943.574585,369.277863 938.949829,352.876740 933.661194,336.605164 
	C926.076172,313.268433 915.715088,291.178253 903.418396,270.082520 
	C882.517944,234.226562 856.313354,202.680099 824.632385,175.686508 
	C803.147888,157.380814 779.970581,141.651718 755.008423,128.613373 
	C725.552246,113.227684 694.476807,102.270454 661.920349,95.368401 
	C639.119263,90.534485 616.103943,87.891663 592.856750,87.482887 
	C571.077515,87.099922 549.435303,88.669930 527.855469,92.154915 
	C507.641632,95.419304 487.834320,100.116959 468.503967,106.629547 
	C447.999847,113.537582 428.339630,122.456703 409.277283,132.822815 
	C380.915436,148.245956 355.566315,167.679367 331.865326,189.369019 
	C321.069824,199.248367 311.641144,210.462494 302.337036,221.760117 
	C282.281921,246.112259 265.527222,272.513977 252.401535,301.217529 
	C238.942078,330.651001 229.338821,361.194244 224.079651,393.215149 
	C220.302979,416.209625 218.770309,439.212585 219.279984,462.469025 
	C219.636902,478.755707 220.794159,494.896729 223.230240,511.026276 
	C226.487549,532.593323 231.699173,553.652893 238.831253,574.180847 
	C250.059311,606.497986 265.312195,636.868774 285.216309,664.775452 
	C299.989777,685.488770 316.308563,704.807068 335.101562,722.130920 
	C352.139099,737.836304 370.249695,751.970215 389.664673,764.536499 
	C406.303955,775.306152 423.739746,784.637817 441.994141,792.247131 
	C465.613342,802.092957 489.950897,809.764465 515.152649,814.660828 
	C533.741943,818.272522 552.472961,820.737610 571.338867,821.481445 
	C593.428162,822.352295 615.433472,821.013672 637.409058,817.852478 
	C658.165833,814.866638 678.523621,810.372559 698.376526,803.953735 
	C734.808655,792.174683 768.558533,774.954224 799.807190,752.667358 
	C826.993713,733.277832 850.847046,710.449585 871.869995,684.683411 
	C888.376038,664.453247 902.360046,642.507446 914.038757,619.075867 
	C926.018005,595.041138 935.367310,570.092896 941.943054,544.071899 
	C942.507690,541.837463 942.784180,539.232666 945.335999,537.547668 
	C945.638245,538.454285 945.939148,539.046692 946.028198,539.669434 
	C948.096680,554.128479 950.478210,568.445923 962.513855,578.702393 
	C963.003235,579.119385 963.268921,579.794250 963.655029,580.337524 
	C967.305664,585.474487 971.408813,586.830444 976.397095,583.122925 
	C986.430115,575.665771 996.168396,567.624573 1002.214966,556.384216 
	C1006.713013,548.022583 1011.118286,539.613892 1015.775391,531.334961 
	C1017.958740,527.453613 1020.448792,524.148926 1025.000000,523.000000 
	C1025.000000,618.358215 1025.000000,713.716492 1024.719849,809.484497 
	C1023.351990,809.689636 1022.451050,810.095520 1021.745483,810.863464 
	C1016.402832,816.677612 1008.917969,818.935547 1002.325378,822.688965 
	C998.109741,825.089050 993.813354,825.508484 989.328247,824.164978 
	C983.946045,822.552856 979.145813,823.827759 974.542725,826.611511 
	C969.653442,829.568481 964.453796,831.724976 958.820374,832.813599 
	C944.009216,835.675842 931.170837,843.103638 918.310974,850.443726 
	C905.350708,857.841003 893.899841,867.557007 880.494568,874.394409 
	C873.757385,877.830811 866.980652,881.465698 860.449219,885.476501 
	C854.193115,889.318237 848.746277,894.302002 842.193298,897.640015 
	C831.678345,902.996094 821.207275,908.438477 810.682068,913.774353 
	C805.342773,916.481201 799.401489,918.316956 794.642761,921.792969 
	C780.627197,932.030090 763.941223,936.303284 748.249207,942.327393 
	C730.242249,949.240295 710.741882,951.553650 692.213867,957.835083 
	C674.639343,963.793152 655.600403,966.322693 636.580444,966.147217 
	C617.922791,965.975037 599.261047,966.158508 580.601746,966.286560 
	C566.072327,966.386230 551.617310,965.606384 537.323975,962.884277 
	C530.452881,961.575684 523.508301,960.416321 516.817871,958.441284 
	C499.851654,953.432922 484.783081,957.064758 470.380249,966.748108 
	C458.967651,974.421021 455.689941,981.936157 458.973083,995.132446 
	C460.692413,1002.043213 462.264069,1009.118958 458.998596,1016.146301 
	C458.045044,1018.198303 459.222229,1019.622864 460.902161,1020.738525 
	C461.422882,1021.084351 461.860413,1021.555542 462.436554,1022.056763 
	C461.602051,1022.675415 460.978912,1023.137390 460.234711,1023.689148 
	C461.223694,1024.157959 462.111847,1024.578979 463.000000,1025.000000 
	C334.308411,1025.000000 205.616852,1025.000000 76.463509,1024.706543 
	C74.752281,1015.939941 69.019127,1010.069397 63.381069,1004.596375 
	C58.262409,999.627563 56.236294,994.168701 58.801750,988.017883 
	C62.020969,980.299683 60.915295,973.479980 57.293953,966.489563 
	C56.309845,964.589905 55.452225,962.465820 55.210323,960.367065 
	C53.879421,948.820068 46.527264,940.308716 40.395073,931.324463 
	C30.546646,916.895508 23.129770,901.767395 22.878601,883.871582 
	C22.637846,866.717773 16.264896,852.457153 2.788552,841.324219 
	C2.088970,842.370789 1.544476,843.185425 0.999991,844.000000 
M114.377251,484.499817 
	C114.378304,504.497589 114.409554,524.495422 114.349884,544.493042 
	C114.340256,547.720520 114.981094,550.641418 116.244476,553.649536 
	C124.725258,573.842590 133.048203,594.102173 141.374420,614.359863 
	C148.372147,631.385376 155.242584,648.463318 162.282227,665.471375 
	C171.295700,687.248230 180.445419,708.968567 189.494034,730.730896 
	C199.370605,754.484375 209.119659,778.291382 219.134033,801.986389 
	C220.620178,805.502686 219.911743,806.988953 216.575745,808.329407 
	C206.571671,812.349487 196.709778,816.726868 186.674515,820.664307 
	C182.799469,822.184692 180.959381,824.404663 182.986298,828.170837 
	C184.883301,831.695618 183.312195,832.794495 180.372086,833.972473 
	C172.212830,837.241516 164.217072,840.935730 155.982681,843.993286 
	C151.317535,845.725525 151.515549,847.998901 153.155090,851.952393 
	C154.913635,856.192749 157.030365,855.815857 160.537003,854.358643 
	C169.829865,850.496887 178.857697,845.898804 189.020584,843.143860 
	C194.472214,856.088318 199.893448,868.729675 205.128708,881.447571 
	C212.197891,898.620605 219.216080,915.816162 226.047241,933.084656 
	C227.760574,937.415710 229.883438,938.563782 234.230759,936.517456 
	C240.376999,933.624390 246.739212,931.186829 253.028061,928.600586 
	C269.148560,921.971130 285.253143,915.301392 301.424988,908.799133 
	C305.439209,907.185059 306.627045,905.408203 304.760284,900.956177 
	C290.770813,867.592712 277.097717,834.096802 263.232330,800.681030 
	C259.450562,791.566833 259.295105,789.591614 248.350693,795.218567 
	C247.767471,795.518433 247.021912,795.524963 246.471664,795.862976 
	C243.115067,797.924683 241.784210,796.000061 240.621979,793.149658 
	C233.232941,775.028625 225.806488,756.922729 218.339188,738.833801 
	C202.389465,700.196960 186.404770,661.574646 170.439468,622.944214 
	C159.799805,597.199951 149.188721,571.443909 138.494308,545.722412 
	C137.684875,543.775635 137.631866,541.851135 137.631363,539.864929 
	C137.622879,506.367340 137.691666,472.869446 137.536484,439.372589 
	C137.518875,435.573456 138.668472,433.943146 142.286728,432.715607 
	C159.736191,426.795654 173.076843,409.028870 173.613495,391.543671 
	C174.283447,369.715363 162.239243,351.811859 141.659485,344.321564 
	C138.726898,343.254242 137.531921,341.764771 137.567429,338.560120 
	C137.720703,324.729492 137.746902,310.894653 137.559708,297.064850 
	C137.505035,293.025513 138.705292,291.451050 142.922104,291.547546 
	C152.915833,291.776245 162.918991,291.627411 172.918045,291.574982 
	C178.662231,291.544861 179.601379,290.643677 179.604523,284.854706 
	C179.629440,238.858032 179.576416,192.861252 179.678223,146.864807 
	C179.688446,142.245041 178.294205,140.308609 173.380386,140.332458 
	C141.883408,140.485321 110.385307,140.392120 78.887611,140.423050 
	C73.120949,140.428711 72.374969,141.264313 72.374100,147.195724 
	C72.367386,193.025742 72.367485,238.855743 72.383873,284.685760 
	C72.386055,290.782104 73.168839,291.569458 79.327881,291.599976 
	C89.493561,291.650391 99.660217,291.683502 109.825203,291.588928 
	C112.866882,291.560608 114.420403,292.393616 114.394234,295.796112 
	C114.282745,310.294128 114.317497,324.793610 114.373116,339.292267 
	C114.383492,341.998535 113.403709,343.506012 110.700623,344.364960 
	C92.838753,350.040680 79.638550,367.833496 79.380608,386.361755 
	C79.076492,408.207184 90.269371,425.094543 110.804192,433.071991 
	C113.840874,434.251678 114.405663,435.751678 114.393929,438.503204 
	C114.329971,453.501801 114.371902,468.500854 114.377251,484.499817 
z"/>
<path fill="#000000" opacity="1.000000" stroke="none" 
	d="
M460.864441,426.215973 
	C466.730865,399.690552 479.599426,377.553925 499.262299,359.618073 
	C518.907898,341.697968 542.051147,330.882324 568.608948,327.497406 
	C599.536133,323.555634 628.508240,329.235809 654.750610,345.977936 
	C684.694031,365.081299 703.657776,392.405304 711.234924,427.183807 
	C716.541748,451.541443 714.678894,475.497070 706.161743,499.068268 
	C699.409790,517.754333 688.801025,533.932495 674.597046,547.405518 
	C654.462769,566.503601 630.476807,578.263855 602.581909,581.519409 
	C576.148682,584.604370 550.858582,581.010986 527.183899,568.635681 
	C493.756866,551.162659 472.063019,523.872498 462.014740,487.674591 
	C456.438843,467.588043 455.765228,447.086761 460.864441,426.215973 
M579.019653,478.543640 
	C580.971619,478.897705 582.912964,479.476898 584.877258,479.569733 
	C599.015564,480.238037 611.483093,468.063568 611.123352,454.037842 
	C610.744934,439.283783 597.212891,427.514526 582.566284,429.480774 
	C569.214172,431.273254 558.182129,445.492004 561.149902,458.602356 
	C563.384033,468.471954 569.256348,474.634674 579.019653,478.543640 
z"/>
</svg>